#N canvas 42 55 1146 667 10;
#X obj 30 166 gemwin;
#X msg 164 106 0 \, destroy;
#X obj 32 330 gemhead;
#X obj 34 434 pix_texture;
#X obj 34 400 pix_image;
#X msg 91 333 open 01/\$1.jpg;
#X obj 35 369 translateXYZ -3.5 3.5 0;
#X obj 195 331 gemhead;
#X obj 197 435 pix_texture;
#X obj 197 401 pix_image;
#X obj 198 466 square 0.5;
#X msg 254 335 open 02/\$1.jpg;
#X obj 198 370 translateXYZ -2.5 3.5 0;
#X obj 356 337 gemhead;
#X obj 358 441 pix_texture;
#X obj 358 407 pix_image;
#X obj 359 472 square 0.5;
#X obj 516 338 gemhead;
#X obj 518 442 pix_texture;
#X obj 518 408 pix_image;
#X obj 519 473 square 0.5;
#X obj 845 344 gemhead;
#X obj 847 448 pix_texture;
#X obj 847 414 pix_image;
#X obj 848 479 square 0.5;
#X obj 1005 343 gemhead;
#X obj 1007 447 pix_texture;
#X obj 1007 413 pix_image;
#X obj 1008 478 square 0.5;
#X obj 1161 342 gemhead;
#X obj 1163 446 pix_texture;
#X obj 1163 412 pix_image;
#X obj 1164 477 square 0.5;
#X obj 359 376 translateXYZ -1.5 3.5 0;
#X obj 519 377 translateXYZ -0.5 3.5 0;
#X obj 848 383 translateXYZ 1.5 3.5 0;
#X obj 1008 382 translateXYZ 2.5 3.5 0;
#X obj 1164 381 translateXYZ 3.5 3.5 0;
#X obj 35 465 square 0.5;
#X obj 685 343 gemhead;
#X obj 687 447 pix_texture;
#X obj 687 413 pix_image;
#X obj 688 478 square 0.5;
#X obj 688 382 translateXYZ 0.5 3.5 0;
#X msg 138 133 create \, 1;
#X floatatom 28 220 5 0 0 0 - - -;
#X obj 31 262 sel 0;
#X obj 75 262 sel 1;
#X obj 115 263 sel 2;
#X obj 195 264 sel 4;
#X obj 155 264 sel 3;
#X obj 234 264 sel 5;
#X obj 273 264 sel 6;
#X obj 311 265 sel 7;
#X obj 30 293 random 8;
#X obj 140 293 random 8;
#X obj 197 293 random 8;
#X obj 253 292 random 8;
#X obj 309 292 random 8;
#X obj 364 292 random 8;
#X obj 420 292 random 8;
#X obj 85 293 random 8;
#X floatatom 625 86 5 0 0 0 - - -;
#X obj 628 128 sel 0;
#X obj 672 128 sel 1;
#X obj 712 129 sel 2;
#X obj 792 130 sel 4;
#X obj 752 130 sel 3;
#X obj 831 130 sel 5;
#X obj 870 130 sel 6;
#X obj 624 161 random 8;
#X obj 737 159 random 8;
#X obj 794 159 random 8;
#X obj 850 158 random 8;
#X obj 906 158 random 8;
#X obj 961 158 random 8;
#X obj 681 160 random 8;
#X obj 38 609 gemhead;
#X obj 39 719 pix_texture;
#X obj 42 683 pix_image;
#X obj 201 610 gemhead;
#X obj 202 720 pix_texture;
#X obj 205 684 pix_image;
#X obj 202 752 square 0.5;
#X obj 362 616 gemhead;
#X obj 363 726 pix_texture;
#X obj 366 690 pix_image;
#X obj 363 758 square 0.5;
#X obj 522 617 gemhead;
#X obj 523 727 pix_texture;
#X obj 526 691 pix_image;
#X obj 523 759 square 0.5;
#X obj 851 623 gemhead;
#X obj 852 733 pix_texture;
#X obj 855 697 pix_image;
#X obj 852 765 square 0.5;
#X obj 1011 622 gemhead;
#X obj 1012 732 pix_texture;
#X obj 1015 696 pix_image;
#X obj 1012 764 square 0.5;
#X obj 1167 621 gemhead;
#X obj 1168 731 pix_texture;
#X obj 1171 695 pix_image;
#X obj 1168 763 square 0.5;
#X obj 39 751 square 0.5;
#X obj 691 622 gemhead;
#X obj 692 732 pix_texture;
#X obj 695 696 pix_image;
#X obj 692 764 square 0.5;
#X floatatom 31 502 5 0 0 0 - - -;
#X obj 34 544 sel 0;
#X obj 78 544 sel 1;
#X obj 118 545 sel 2;
#X obj 198 546 sel 4;
#X obj 158 546 sel 3;
#X obj 237 546 sel 5;
#X obj 276 546 sel 6;
#X obj 314 547 sel 7;
#X obj 33 575 random 8;
#X obj 143 575 random 8;
#X obj 200 575 random 8;
#X obj 256 574 random 8;
#X obj 312 574 random 8;
#X obj 367 574 random 8;
#X obj 423 574 random 8;
#X obj 88 575 random 8;
#X obj 38 904 gemhead;
#X obj 45 991 pix_texture;
#X obj 44 962 pix_image;
#X obj 201 905 gemhead;
#X obj 208 992 pix_texture;
#X obj 207 963 pix_image;
#X obj 209 1019 square 0.5;
#X obj 362 911 gemhead;
#X obj 369 998 pix_texture;
#X obj 368 969 pix_image;
#X obj 370 1025 square 0.5;
#X obj 522 912 gemhead;
#X obj 529 999 pix_texture;
#X obj 528 970 pix_image;
#X obj 530 1026 square 0.5;
#X obj 851 918 gemhead;
#X obj 858 1005 pix_texture;
#X obj 857 976 pix_image;
#X obj 859 1032 square 0.5;
#X obj 1011 917 gemhead;
#X obj 1018 1004 pix_texture;
#X obj 1017 975 pix_image;
#X obj 1019 1031 square 0.5;
#X obj 1167 916 gemhead;
#X obj 1174 1003 pix_texture;
#X obj 1173 974 pix_image;
#X obj 1175 1030 square 0.5;
#X obj 46 1018 square 0.5;
#X obj 691 917 gemhead;
#X obj 698 1004 pix_texture;
#X obj 697 975 pix_image;
#X obj 699 1031 square 0.5;
#X floatatom 39 806 5 0 0 0 - - -;
#X obj 38 845 sel 0;
#X obj 82 845 sel 1;
#X obj 122 846 sel 2;
#X obj 202 847 sel 4;
#X obj 162 847 sel 3;
#X obj 241 847 sel 5;
#X obj 280 847 sel 6;
#X obj 318 848 sel 7;
#X obj 37 876 random 8;
#X obj 147 876 random 8;
#X obj 204 876 random 8;
#X obj 260 875 random 8;
#X obj 316 875 random 8;
#X obj 371 875 random 8;
#X obj 427 875 random 8;
#X obj 92 876 random 8;
#X obj 40 1149 gemhead;
#X obj 41 1224 pix_texture;
#X obj 42 1199 pix_image;
#X obj 203 1150 gemhead;
#X obj 204 1225 pix_texture;
#X obj 205 1200 pix_image;
#X obj 205 1248 square 0.5;
#X obj 364 1156 gemhead;
#X obj 365 1231 pix_texture;
#X obj 366 1206 pix_image;
#X obj 366 1254 square 0.5;
#X obj 524 1157 gemhead;
#X obj 525 1232 pix_texture;
#X obj 526 1207 pix_image;
#X obj 526 1255 square 0.5;
#X obj 853 1163 gemhead;
#X obj 854 1238 pix_texture;
#X obj 855 1213 pix_image;
#X obj 855 1261 square 0.5;
#X obj 1013 1162 gemhead;
#X obj 1014 1237 pix_texture;
#X obj 1015 1212 pix_image;
#X obj 1015 1260 square 0.5;
#X obj 1169 1161 gemhead;
#X obj 1170 1236 pix_texture;
#X obj 1171 1211 pix_image;
#X obj 1171 1259 square 0.5;
#X obj 366 1183 translateXYZ -1.5 3.5 0;
#X obj 526 1184 translateXYZ -0.5 3.5 0;
#X obj 855 1190 translateXYZ 1.5 3.5 0;
#X obj 1015 1189 translateXYZ 2.5 3.5 0;
#X obj 1171 1188 translateXYZ 3.5 3.5 0;
#X obj 42 1247 square 0.5;
#X obj 693 1162 gemhead;
#X obj 694 1237 pix_texture;
#X obj 695 1212 pix_image;
#X obj 695 1260 square 0.5;
#X obj 695 1189 translateXYZ 0.5 3.5 0;
#X floatatom 37 1047 5 0 0 0 - - -;
#X obj 40 1089 sel 0;
#X obj 84 1089 sel 1;
#X obj 124 1090 sel 2;
#X obj 204 1091 sel 4;
#X obj 164 1091 sel 3;
#X obj 243 1091 sel 5;
#X obj 282 1091 sel 6;
#X obj 320 1092 sel 7;
#X obj 39 1120 random 8;
#X obj 149 1120 random 8;
#X obj 206 1120 random 8;
#X obj 262 1119 random 8;
#X obj 318 1119 random 8;
#X obj 373 1119 random 8;
#X obj 429 1119 random 8;
#X obj 94 1120 random 8;
#X obj 374 146 random 7;
#X obj 204 649 translateXYZ -2.5 2.5 0;
#X obj 41 648 translateXYZ -3.5 2.5 0;
#X obj 365 655 translateXYZ -1.5 2.5 0;
#X obj 525 656 translateXYZ -0.5 2.5 0;
#X obj 694 661 translateXYZ 0.5 2.5 0;
#X obj 854 662 translateXYZ 1.5 2.5 0;
#X obj 1014 661 translateXYZ 2.5 2.5 0;
#X obj 1170 660 translateXYZ 3.5 2.5 0;
#X obj 313 108 tgl 15 0 empty empty empty 17 7 0 10 -262144 -1 -1 1
1;
#X msg 412 337 open 03/\$1.jpg;
#X msg 577 339 open 04/\$1.jpg;
#X msg 741 342 open 05/\$1.jpg;
#X msg 1060 343 open 07/\$1.jpg;
#X msg 900 345 open 06/\$1.jpg;
#X msg 1214 342 open 08/\$1.jpg;
#X msg 97 612 open 09/\$1.jpg;
#X msg 260 614 open 10/\$1.jpg;
#X msg 418 616 open 11/\$1.jpg;
#X msg 583 618 open 12/\$1.jpg;
#X msg 747 621 open 13/\$1.jpg;
#X msg 906 624 open 14/\$1.jpg;
#X msg 1066 622 open 15/\$1.jpg;
#X msg 1220 621 open 16/\$1.jpg;
#X msg 97 907 open 17/\$1.jpg;
#X msg 260 909 open 18/\$1.jpg;
#X msg 418 911 open 19/\$1.jpg;
#X msg 583 913 open 20/\$1.jpg;
#X msg 747 916 open 21/\$1.jpg;
#X msg 906 919 open 22/\$1.jpg;
#X msg 1066 917 open 23/\$1.jpg;
#X msg 1220 916 open 24/\$1.jpg;
#X obj 1170 944 translateXYZ 3.5 1.5 0;
#X obj 1014 945 translateXYZ 2.5 1.5 0;
#X obj 854 946 translateXYZ 1.5 1.5 0;
#X obj 694 945 translateXYZ 0.5 1.5 0;
#X obj 525 940 translateXYZ -0.5 1.5 0;
#X obj 365 939 translateXYZ -1.5 1.5 0;
#X obj 204 933 translateXYZ -2.5 1.5 0;
#X obj 41 932 translateXYZ -3.5 1.5 0;
#X obj 32 76 hradio 15 1 0 3 empty empty empty 0 -8 0 10 -262144 -1
-1 0;
#X msg 32 133 fullscreen \$1;
#X msg 32 103 dimen 1280 720;
#X obj 366 122 metro 1000;
#X obj 42 1176 translateXYZ -3.5 0.5 0;
#X obj 205 1177 translateXYZ -2.5 0.5 0;
#X msg 99 1152 open 25/\$1.jpg;
#X msg 262 1154 open 26/\$1.jpg;
#X msg 749 1161 open 29/\$1.jpg;
#X msg 908 1164 open 30/\$1.jpg;
#X msg 1068 1162 open 31/\$1.jpg;
#X msg 1222 1161 open 32/\$1.jpg;
#X obj 45 1382 gemhead;
#X obj 46 1457 pix_texture;
#X obj 47 1432 pix_image;
#X obj 208 1383 gemhead;
#X obj 209 1458 pix_texture;
#X obj 210 1433 pix_image;
#X obj 210 1481 square 0.5;
#X obj 369 1389 gemhead;
#X obj 370 1464 pix_texture;
#X obj 371 1439 pix_image;
#X obj 371 1487 square 0.5;
#X obj 529 1390 gemhead;
#X obj 530 1465 pix_texture;
#X obj 531 1440 pix_image;
#X obj 531 1488 square 0.5;
#X obj 858 1396 gemhead;
#X obj 859 1471 pix_texture;
#X obj 860 1446 pix_image;
#X obj 860 1494 square 0.5;
#X obj 1018 1395 gemhead;
#X obj 1019 1470 pix_texture;
#X obj 1020 1445 pix_image;
#X obj 1020 1493 square 0.5;
#X obj 1174 1394 gemhead;
#X obj 1175 1469 pix_texture;
#X obj 1176 1444 pix_image;
#X obj 1176 1492 square 0.5;
#X obj 371 1416 translateXYZ -1.5 3.5 0;
#X obj 531 1417 translateXYZ -0.5 3.5 0;
#X obj 860 1423 translateXYZ 1.5 3.5 0;
#X obj 1020 1422 translateXYZ 2.5 3.5 0;
#X obj 1176 1421 translateXYZ 3.5 3.5 0;
#X obj 47 1480 square 0.5;
#X obj 698 1395 gemhead;
#X obj 699 1470 pix_texture;
#X obj 700 1445 pix_image;
#X obj 700 1493 square 0.5;
#X obj 700 1422 translateXYZ 0.5 3.5 0;
#X floatatom 42 1280 5 0 0 0 - - -;
#X obj 45 1322 sel 0;
#X obj 89 1322 sel 1;
#X obj 129 1323 sel 2;
#X obj 209 1324 sel 4;
#X obj 169 1324 sel 3;
#X obj 248 1324 sel 5;
#X obj 287 1324 sel 6;
#X obj 325 1325 sel 7;
#X obj 44 1353 random 8;
#X obj 154 1353 random 8;
#X obj 211 1353 random 8;
#X obj 267 1352 random 8;
#X obj 323 1352 random 8;
#X obj 378 1352 random 8;
#X obj 434 1352 random 8;
#X obj 99 1353 random 8;
#X obj 47 1409 translateXYZ -3.5 0.5 0;
#X obj 210 1410 translateXYZ -2.5 0.5 0;
#X obj 52 1613 gemhead;
#X obj 53 1688 pix_texture;
#X obj 54 1663 pix_image;
#X obj 215 1614 gemhead;
#X obj 216 1689 pix_texture;
#X obj 217 1664 pix_image;
#X obj 217 1712 square 0.5;
#X obj 376 1620 gemhead;
#X obj 377 1695 pix_texture;
#X obj 378 1670 pix_image;
#X obj 378 1718 square 0.5;
#X obj 536 1621 gemhead;
#X obj 537 1696 pix_texture;
#X obj 538 1671 pix_image;
#X obj 538 1719 square 0.5;
#X obj 865 1627 gemhead;
#X obj 866 1702 pix_texture;
#X obj 867 1677 pix_image;
#X obj 867 1725 square 0.5;
#X obj 1025 1626 gemhead;
#X obj 1026 1701 pix_texture;
#X obj 1027 1676 pix_image;
#X obj 1027 1724 square 0.5;
#X obj 1181 1625 gemhead;
#X obj 1182 1700 pix_texture;
#X obj 1183 1675 pix_image;
#X obj 1183 1723 square 0.5;
#X obj 378 1647 translateXYZ -1.5 3.5 0;
#X obj 538 1648 translateXYZ -0.5 3.5 0;
#X obj 867 1654 translateXYZ 1.5 3.5 0;
#X obj 1027 1653 translateXYZ 2.5 3.5 0;
#X obj 1183 1652 translateXYZ 3.5 3.5 0;
#X obj 54 1711 square 0.5;
#X obj 705 1626 gemhead;
#X obj 706 1701 pix_texture;
#X obj 707 1676 pix_image;
#X obj 707 1724 square 0.5;
#X obj 707 1653 translateXYZ 0.5 3.5 0;
#X floatatom 49 1511 5 0 0 0 - - -;
#X obj 52 1553 sel 0;
#X obj 96 1553 sel 1;
#X obj 136 1554 sel 2;
#X obj 216 1555 sel 4;
#X obj 176 1555 sel 3;
#X obj 255 1555 sel 5;
#X obj 294 1555 sel 6;
#X obj 332 1556 sel 7;
#X obj 51 1584 random 8;
#X obj 161 1584 random 8;
#X obj 218 1584 random 8;
#X obj 274 1583 random 8;
#X obj 330 1583 random 8;
#X obj 385 1583 random 8;
#X obj 441 1583 random 8;
#X obj 106 1584 random 8;
#X obj 54 1640 translateXYZ -3.5 0.5 0;
#X obj 217 1641 translateXYZ -2.5 0.5 0;
#X obj 57 1846 gemhead;
#X obj 58 1921 pix_texture;
#X obj 59 1896 pix_image;
#X obj 220 1847 gemhead;
#X obj 221 1922 pix_texture;
#X obj 222 1897 pix_image;
#X obj 222 1945 square 0.5;
#X obj 381 1853 gemhead;
#X obj 382 1928 pix_texture;
#X obj 383 1903 pix_image;
#X obj 383 1951 square 0.5;
#X obj 541 1854 gemhead;
#X obj 542 1929 pix_texture;
#X obj 543 1904 pix_image;
#X obj 543 1952 square 0.5;
#X obj 870 1860 gemhead;
#X obj 871 1935 pix_texture;
#X obj 872 1910 pix_image;
#X obj 872 1958 square 0.5;
#X obj 1030 1859 gemhead;
#X obj 1031 1934 pix_texture;
#X obj 1032 1909 pix_image;
#X obj 1032 1957 square 0.5;
#X obj 1186 1858 gemhead;
#X obj 1187 1933 pix_texture;
#X obj 1188 1908 pix_image;
#X obj 1188 1956 square 0.5;
#X obj 383 1880 translateXYZ -1.5 3.5 0;
#X obj 543 1881 translateXYZ -0.5 3.5 0;
#X obj 872 1887 translateXYZ 1.5 3.5 0;
#X obj 1032 1886 translateXYZ 2.5 3.5 0;
#X obj 1188 1885 translateXYZ 3.5 3.5 0;
#X obj 59 1944 square 0.5;
#X obj 710 1859 gemhead;
#X obj 711 1934 pix_texture;
#X obj 712 1909 pix_image;
#X obj 712 1957 square 0.5;
#X obj 712 1886 translateXYZ 0.5 3.5 0;
#X floatatom 54 1744 5 0 0 0 - - -;
#X obj 57 1786 sel 0;
#X obj 101 1786 sel 1;
#X obj 141 1787 sel 2;
#X obj 221 1788 sel 4;
#X obj 181 1788 sel 3;
#X obj 260 1788 sel 5;
#X obj 299 1788 sel 6;
#X obj 337 1789 sel 7;
#X obj 56 1817 random 8;
#X obj 166 1817 random 8;
#X obj 223 1817 random 8;
#X obj 279 1816 random 8;
#X obj 335 1816 random 8;
#X obj 390 1816 random 8;
#X obj 446 1816 random 8;
#X obj 111 1817 random 8;
#X obj 59 1873 translateXYZ -3.5 0.5 0;
#X obj 222 1874 translateXYZ -2.5 0.5 0;
#X msg 541 255 3;
#X obj 96 -10 bng 50 250 50 0 empty empty empty 17 7 0 10 -4034 -1
-1;
#X msg 560 513 2;
#X msg 576 825 1;
#X msg 512 1088 0;
#X msg 517 1321 -1;
#X msg 524 1552 -2;
#X msg 529 1785 -3;
#X obj 162 -10 bng 50 250 50 0 empty empty empty 17 7 0 10 -258113
-1 -1;
#X text 761 258 Row 1;
#X text 762 533 Row 2;
#X text 772 837 Row 3;
#X text 773 1099 Row 4;
#X text 773 1337 Row 5;
#X text 788 1562 Row 6;
#X text 785 1804 Row 7;
#X msg 104 1385 open 33/\$1.jpg;
#X msg 267 1387 open 34/\$1.jpg;
#X msg 425 1389 open 35/\$1.jpg;
#X msg 590 1391 open 36/\$1.jpg;
#X msg 754 1394 open 37/\$1.jpg;
#X msg 913 1397 open 38/\$1.jpg;
#X msg 1073 1395 open 39/\$1.jpg;
#X msg 1227 1394 open 40/\$1.jpg;
#X msg 420 1156 open 27/\$1.jpg;
#X msg 585 1158 open 28/\$1.jpg;
#X msg 111 1616 open 41/\$1.jpg;
#X msg 274 1618 open 42/\$1.jpg;
#X msg 432 1620 open 43/\$1.jpg;
#X msg 597 1622 open 44/\$1.jpg;
#X msg 761 1625 open 45/\$1.jpg;
#X msg 920 1628 open 46/\$1.jpg;
#X msg 1080 1626 open 47/\$1.jpg;
#X msg 1234 1625 open 48/\$1.jpg;
#X msg 116 1849 open 49/\$1.jpg;
#X msg 279 1851 open 50/\$1.jpg;
#X msg 602 1855 open 52/\$1.jpg;
#X msg 766 1858 open 53/\$1.jpg;
#X msg 925 1861 open 54/\$1.jpg;
#X msg 1085 1859 open 55/\$1.jpg;
#X msg 1239 1858 open 56/\$1.jpg;
#X msg 344 76 1000;
#X msg 437 1853 open 51/\$1.jpg;
#X obj 26 -11 bng 50 250 50 0 empty empty empty 17 7 0 10 -260097 -1
-1;
#X msg 305 76 0;
#X msg 264 77 1;
#X obj 1143 15 adc~;
#X obj 1145 40 env~;
#X floatatom 1145 66 5 0 0 0 - - -;
#X floatatom 1069 27 5 0 0 0 - - -;
#X obj 1075 56 smooth;
#X obj 1052 92 maxlib/scale 15 100 1000 10 1;
#X obj 230 1 hsl 200 35 1 2000 0 0 empty empty <-Fast---Slow-> 26 16
0 16 -204800 -1 -1 0 1;
#X floatatom 390 76 5 0 0 0 - - -;
#X connect 1 0 0 0;
#X connect 2 0 6 0;
#X connect 3 0 38 0;
#X connect 4 0 3 0;
#X connect 5 0 4 0;
#X connect 6 0 4 0;
#X connect 7 0 12 0;
#X connect 8 0 10 0;
#X connect 9 0 8 0;
#X connect 11 0 9 0;
#X connect 12 0 9 0;
#X connect 13 0 33 0;
#X connect 14 0 16 0;
#X connect 15 0 14 0;
#X connect 17 0 34 0;
#X connect 18 0 20 0;
#X connect 19 0 18 0;
#X connect 21 0 35 0;
#X connect 22 0 24 0;
#X connect 23 0 22 0;
#X connect 25 0 36 0;
#X connect 26 0 28 0;
#X connect 27 0 26 0;
#X connect 29 0 37 0;
#X connect 30 0 32 0;
#X connect 31 0 30 0;
#X connect 33 0 15 0;
#X connect 34 0 19 0;
#X connect 35 0 23 0;
#X connect 36 0 27 0;
#X connect 37 0 31 0;
#X connect 39 0 43 0;
#X connect 40 0 42 0;
#X connect 41 0 40 0;
#X connect 43 0 41 0;
#X connect 44 0 0 0;
#X connect 45 0 46 0;
#X connect 45 0 47 0;
#X connect 45 0 48 0;
#X connect 45 0 50 0;
#X connect 45 0 49 0;
#X connect 45 0 51 0;
#X connect 45 0 52 0;
#X connect 45 0 53 0;
#X connect 46 0 54 0;
#X connect 47 0 61 0;
#X connect 48 0 55 0;
#X connect 49 0 57 0;
#X connect 50 0 56 0;
#X connect 51 0 58 0;
#X connect 52 0 59 0;
#X connect 53 0 60 0;
#X connect 54 0 5 0;
#X connect 55 0 240 0;
#X connect 56 0 241 0;
#X connect 57 0 242 0;
#X connect 58 0 244 0;
#X connect 59 0 243 0;
#X connect 60 0 245 0;
#X connect 61 0 11 0;
#X connect 62 0 63 0;
#X connect 62 0 64 0;
#X connect 62 0 65 0;
#X connect 62 0 67 0;
#X connect 62 0 66 0;
#X connect 62 0 68 0;
#X connect 62 0 69 0;
#X connect 63 0 70 0;
#X connect 64 0 76 0;
#X connect 65 0 71 0;
#X connect 66 0 73 0;
#X connect 67 0 72 0;
#X connect 68 0 74 0;
#X connect 69 0 75 0;
#X connect 70 0 45 0;
#X connect 71 0 158 0;
#X connect 72 0 213 0;
#X connect 73 0 320 0;
#X connect 74 0 377 0;
#X connect 75 0 434 0;
#X connect 76 0 109 0;
#X connect 77 0 232 0;
#X connect 78 0 104 0;
#X connect 79 0 78 0;
#X connect 80 0 231 0;
#X connect 81 0 83 0;
#X connect 82 0 81 0;
#X connect 84 0 233 0;
#X connect 85 0 87 0;
#X connect 86 0 85 0;
#X connect 88 0 234 0;
#X connect 89 0 91 0;
#X connect 90 0 89 0;
#X connect 92 0 236 0;
#X connect 93 0 95 0;
#X connect 94 0 93 0;
#X connect 96 0 237 0;
#X connect 97 0 99 0;
#X connect 98 0 97 0;
#X connect 100 0 238 0;
#X connect 101 0 103 0;
#X connect 102 0 101 0;
#X connect 105 0 235 0;
#X connect 106 0 108 0;
#X connect 107 0 106 0;
#X connect 109 0 110 0;
#X connect 109 0 111 0;
#X connect 109 0 112 0;
#X connect 109 0 114 0;
#X connect 109 0 113 0;
#X connect 109 0 115 0;
#X connect 109 0 116 0;
#X connect 109 0 117 0;
#X connect 110 0 118 0;
#X connect 111 0 125 0;
#X connect 112 0 119 0;
#X connect 113 0 121 0;
#X connect 114 0 120 0;
#X connect 115 0 122 0;
#X connect 116 0 123 0;
#X connect 117 0 124 0;
#X connect 118 0 246 0;
#X connect 119 0 248 0;
#X connect 120 0 249 0;
#X connect 121 0 250 0;
#X connect 122 0 251 0;
#X connect 123 0 252 0;
#X connect 124 0 253 0;
#X connect 125 0 247 0;
#X connect 126 0 269 0;
#X connect 127 0 153 0;
#X connect 128 0 127 0;
#X connect 129 0 268 0;
#X connect 130 0 132 0;
#X connect 131 0 130 0;
#X connect 133 0 267 0;
#X connect 134 0 136 0;
#X connect 135 0 134 0;
#X connect 137 0 266 0;
#X connect 138 0 140 0;
#X connect 139 0 138 0;
#X connect 141 0 264 0;
#X connect 142 0 144 0;
#X connect 143 0 142 0;
#X connect 145 0 263 0;
#X connect 146 0 148 0;
#X connect 147 0 146 0;
#X connect 149 0 262 0;
#X connect 150 0 152 0;
#X connect 151 0 150 0;
#X connect 154 0 265 0;
#X connect 155 0 157 0;
#X connect 156 0 155 0;
#X connect 158 0 159 0;
#X connect 158 0 160 0;
#X connect 158 0 161 0;
#X connect 158 0 163 0;
#X connect 158 0 162 0;
#X connect 158 0 164 0;
#X connect 158 0 165 0;
#X connect 158 0 166 0;
#X connect 159 0 167 0;
#X connect 160 0 174 0;
#X connect 161 0 168 0;
#X connect 162 0 170 0;
#X connect 163 0 169 0;
#X connect 164 0 171 0;
#X connect 165 0 172 0;
#X connect 166 0 173 0;
#X connect 167 0 254 0;
#X connect 168 0 256 0;
#X connect 169 0 257 0;
#X connect 170 0 258 0;
#X connect 171 0 259 0;
#X connect 172 0 260 0;
#X connect 173 0 261 0;
#X connect 174 0 255 0;
#X connect 175 0 274 0;
#X connect 176 0 207 0;
#X connect 177 0 176 0;
#X connect 178 0 275 0;
#X connect 179 0 181 0;
#X connect 180 0 179 0;
#X connect 182 0 202 0;
#X connect 183 0 185 0;
#X connect 184 0 183 0;
#X connect 186 0 203 0;
#X connect 187 0 189 0;
#X connect 188 0 187 0;
#X connect 190 0 204 0;
#X connect 191 0 193 0;
#X connect 192 0 191 0;
#X connect 194 0 205 0;
#X connect 195 0 197 0;
#X connect 196 0 195 0;
#X connect 198 0 206 0;
#X connect 199 0 201 0;
#X connect 200 0 199 0;
#X connect 202 0 184 0;
#X connect 203 0 188 0;
#X connect 204 0 192 0;
#X connect 205 0 196 0;
#X connect 206 0 200 0;
#X connect 208 0 212 0;
#X connect 209 0 211 0;
#X connect 210 0 209 0;
#X connect 212 0 210 0;
#X connect 213 0 214 0;
#X connect 213 0 215 0;
#X connect 213 0 216 0;
#X connect 213 0 218 0;
#X connect 213 0 217 0;
#X connect 213 0 219 0;
#X connect 213 0 220 0;
#X connect 213 0 221 0;
#X connect 214 0 222 0;
#X connect 215 0 229 0;
#X connect 216 0 223 0;
#X connect 217 0 225 0;
#X connect 218 0 224 0;
#X connect 219 0 226 0;
#X connect 220 0 227 0;
#X connect 221 0 228 0;
#X connect 222 0 276 0;
#X connect 223 0 477 0;
#X connect 224 0 478 0;
#X connect 225 0 278 0;
#X connect 226 0 279 0;
#X connect 227 0 280 0;
#X connect 228 0 281 0;
#X connect 229 0 277 0;
#X connect 230 0 62 0;
#X connect 231 0 82 0;
#X connect 232 0 79 0;
#X connect 233 0 86 0;
#X connect 234 0 90 0;
#X connect 235 0 107 0;
#X connect 236 0 94 0;
#X connect 237 0 98 0;
#X connect 238 0 102 0;
#X connect 239 0 273 0;
#X connect 240 0 15 0;
#X connect 241 0 19 0;
#X connect 242 0 41 0;
#X connect 243 0 27 0;
#X connect 244 0 23 0;
#X connect 245 0 31 0;
#X connect 246 0 79 0;
#X connect 247 0 82 0;
#X connect 248 0 86 0;
#X connect 249 0 90 0;
#X connect 250 0 107 0;
#X connect 251 0 94 0;
#X connect 252 0 98 0;
#X connect 253 0 102 0;
#X connect 254 0 128 0;
#X connect 255 0 131 0;
#X connect 256 0 135 0;
#X connect 257 0 139 0;
#X connect 258 0 156 0;
#X connect 259 0 143 0;
#X connect 260 0 147 0;
#X connect 261 0 151 0;
#X connect 262 0 151 0;
#X connect 263 0 147 0;
#X connect 264 0 143 0;
#X connect 265 0 156 0;
#X connect 266 0 139 0;
#X connect 267 0 135 0;
#X connect 268 0 131 0;
#X connect 269 0 128 0;
#X connect 270 0 271 0;
#X connect 271 0 0 0;
#X connect 272 0 0 0;
#X connect 273 0 230 0;
#X connect 274 0 177 0;
#X connect 275 0 180 0;
#X connect 276 0 177 0;
#X connect 277 0 180 0;
#X connect 278 0 210 0;
#X connect 279 0 192 0;
#X connect 280 0 196 0;
#X connect 281 0 200 0;
#X connect 282 0 337 0;
#X connect 283 0 314 0;
#X connect 284 0 283 0;
#X connect 285 0 338 0;
#X connect 286 0 288 0;
#X connect 287 0 286 0;
#X connect 289 0 309 0;
#X connect 290 0 292 0;
#X connect 291 0 290 0;
#X connect 293 0 310 0;
#X connect 294 0 296 0;
#X connect 295 0 294 0;
#X connect 297 0 311 0;
#X connect 298 0 300 0;
#X connect 299 0 298 0;
#X connect 301 0 312 0;
#X connect 302 0 304 0;
#X connect 303 0 302 0;
#X connect 305 0 313 0;
#X connect 306 0 308 0;
#X connect 307 0 306 0;
#X connect 309 0 291 0;
#X connect 310 0 295 0;
#X connect 311 0 299 0;
#X connect 312 0 303 0;
#X connect 313 0 307 0;
#X connect 315 0 319 0;
#X connect 316 0 318 0;
#X connect 317 0 316 0;
#X connect 319 0 317 0;
#X connect 320 0 321 0;
#X connect 320 0 322 0;
#X connect 320 0 323 0;
#X connect 320 0 325 0;
#X connect 320 0 324 0;
#X connect 320 0 326 0;
#X connect 320 0 327 0;
#X connect 320 0 328 0;
#X connect 321 0 329 0;
#X connect 322 0 336 0;
#X connect 323 0 330 0;
#X connect 324 0 332 0;
#X connect 325 0 331 0;
#X connect 326 0 333 0;
#X connect 327 0 334 0;
#X connect 328 0 335 0;
#X connect 329 0 469 0;
#X connect 330 0 471 0;
#X connect 331 0 472 0;
#X connect 332 0 473 0;
#X connect 333 0 474 0;
#X connect 334 0 475 0;
#X connect 335 0 476 0;
#X connect 336 0 470 0;
#X connect 337 0 284 0;
#X connect 338 0 287 0;
#X connect 339 0 394 0;
#X connect 340 0 371 0;
#X connect 341 0 340 0;
#X connect 342 0 395 0;
#X connect 343 0 345 0;
#X connect 344 0 343 0;
#X connect 346 0 366 0;
#X connect 347 0 349 0;
#X connect 348 0 347 0;
#X connect 350 0 367 0;
#X connect 351 0 353 0;
#X connect 352 0 351 0;
#X connect 354 0 368 0;
#X connect 355 0 357 0;
#X connect 356 0 355 0;
#X connect 358 0 369 0;
#X connect 359 0 361 0;
#X connect 360 0 359 0;
#X connect 362 0 370 0;
#X connect 363 0 365 0;
#X connect 364 0 363 0;
#X connect 366 0 348 0;
#X connect 367 0 352 0;
#X connect 368 0 356 0;
#X connect 369 0 360 0;
#X connect 370 0 364 0;
#X connect 372 0 376 0;
#X connect 373 0 375 0;
#X connect 374 0 373 0;
#X connect 376 0 374 0;
#X connect 377 0 378 0;
#X connect 377 0 379 0;
#X connect 377 0 380 0;
#X connect 377 0 382 0;
#X connect 377 0 381 0;
#X connect 377 0 383 0;
#X connect 377 0 384 0;
#X connect 377 0 385 0;
#X connect 378 0 386 0;
#X connect 379 0 393 0;
#X connect 380 0 387 0;
#X connect 381 0 389 0;
#X connect 382 0 388 0;
#X connect 383 0 390 0;
#X connect 384 0 391 0;
#X connect 385 0 392 0;
#X connect 386 0 479 0;
#X connect 387 0 481 0;
#X connect 388 0 482 0;
#X connect 389 0 483 0;
#X connect 390 0 484 0;
#X connect 391 0 485 0;
#X connect 392 0 486 0;
#X connect 393 0 480 0;
#X connect 394 0 341 0;
#X connect 395 0 344 0;
#X connect 396 0 451 0;
#X connect 397 0 428 0;
#X connect 398 0 397 0;
#X connect 399 0 452 0;
#X connect 400 0 402 0;
#X connect 401 0 400 0;
#X connect 403 0 423 0;
#X connect 404 0 406 0;
#X connect 405 0 404 0;
#X connect 407 0 424 0;
#X connect 408 0 410 0;
#X connect 409 0 408 0;
#X connect 411 0 425 0;
#X connect 412 0 414 0;
#X connect 413 0 412 0;
#X connect 415 0 426 0;
#X connect 416 0 418 0;
#X connect 417 0 416 0;
#X connect 419 0 427 0;
#X connect 420 0 422 0;
#X connect 421 0 420 0;
#X connect 423 0 405 0;
#X connect 424 0 409 0;
#X connect 425 0 413 0;
#X connect 426 0 417 0;
#X connect 427 0 421 0;
#X connect 429 0 433 0;
#X connect 430 0 432 0;
#X connect 431 0 430 0;
#X connect 433 0 431 0;
#X connect 434 0 435 0;
#X connect 434 0 436 0;
#X connect 434 0 437 0;
#X connect 434 0 439 0;
#X connect 434 0 438 0;
#X connect 434 0 440 0;
#X connect 434 0 441 0;
#X connect 434 0 442 0;
#X connect 435 0 443 0;
#X connect 436 0 450 0;
#X connect 437 0 444 0;
#X connect 438 0 446 0;
#X connect 439 0 445 0;
#X connect 440 0 447 0;
#X connect 441 0 448 0;
#X connect 442 0 449 0;
#X connect 443 0 487 0;
#X connect 444 0 495 0;
#X connect 445 0 489 0;
#X connect 446 0 490 0;
#X connect 447 0 491 0;
#X connect 448 0 492 0;
#X connect 449 0 493 0;
#X connect 450 0 488 0;
#X connect 451 0 398 0;
#X connect 452 0 401 0;
#X connect 453 0 6 2;
#X connect 453 0 12 2;
#X connect 453 0 33 2;
#X connect 453 0 34 2;
#X connect 453 0 43 2;
#X connect 453 0 35 2;
#X connect 453 0 36 2;
#X connect 453 0 37 2;
#X connect 454 0 453 0;
#X connect 454 0 455 0;
#X connect 454 0 456 0;
#X connect 454 0 457 0;
#X connect 454 0 458 0;
#X connect 454 0 459 0;
#X connect 454 0 460 0;
#X connect 454 0 44 0;
#X connect 454 0 494 0;
#X connect 455 0 232 2;
#X connect 455 0 231 2;
#X connect 455 0 233 2;
#X connect 455 0 234 2;
#X connect 455 0 235 2;
#X connect 455 0 236 2;
#X connect 455 0 237 2;
#X connect 455 0 238 2;
#X connect 456 0 269 2;
#X connect 456 0 268 2;
#X connect 456 0 267 2;
#X connect 456 0 266 2;
#X connect 456 0 265 2;
#X connect 456 0 264 2;
#X connect 456 0 263 2;
#X connect 456 0 262 2;
#X connect 457 0 274 2;
#X connect 457 0 275 2;
#X connect 457 0 202 2;
#X connect 457 0 203 2;
#X connect 457 0 212 2;
#X connect 457 0 204 2;
#X connect 457 0 205 2;
#X connect 457 0 206 2;
#X connect 458 0 337 2;
#X connect 458 0 338 2;
#X connect 458 0 309 2;
#X connect 458 0 310 2;
#X connect 458 0 319 2;
#X connect 458 0 311 2;
#X connect 458 0 312 2;
#X connect 458 0 313 2;
#X connect 459 0 394 2;
#X connect 459 0 395 2;
#X connect 459 0 366 2;
#X connect 459 0 367 2;
#X connect 459 0 376 2;
#X connect 459 0 368 2;
#X connect 459 0 369 2;
#X connect 459 0 370 2;
#X connect 460 0 451 2;
#X connect 460 0 452 2;
#X connect 460 0 423 2;
#X connect 460 0 424 2;
#X connect 460 0 433 2;
#X connect 460 0 425 2;
#X connect 460 0 426 2;
#X connect 460 0 427 2;
#X connect 461 0 1 0;
#X connect 461 0 497 0;
#X connect 469 0 284 0;
#X connect 470 0 287 0;
#X connect 471 0 291 0;
#X connect 472 0 295 0;
#X connect 473 0 317 0;
#X connect 474 0 299 0;
#X connect 475 0 303 0;
#X connect 476 0 307 0;
#X connect 477 0 184 0;
#X connect 478 0 188 0;
#X connect 479 0 341 0;
#X connect 480 0 344 0;
#X connect 481 0 348 0;
#X connect 482 0 352 0;
#X connect 483 0 374 0;
#X connect 484 0 356 0;
#X connect 485 0 360 0;
#X connect 486 0 364 0;
#X connect 487 0 398 0;
#X connect 488 0 401 0;
#X connect 489 0 409 0;
#X connect 490 0 431 0;
#X connect 491 0 413 0;
#X connect 492 0 417 0;
#X connect 493 0 421 0;
#X connect 494 0 273 1;
#X connect 495 0 405 0;
#X connect 496 0 270 0;
#X connect 496 0 272 0;
#X connect 496 0 498 0;
#X connect 497 0 239 0;
#X connect 498 0 239 0;
#X connect 498 0 273 1;
#X connect 499 0 500 0;
#X connect 500 0 501 0;
#X connect 501 0 504 0;
#X connect 503 0 502 0;
#X connect 504 0 503 0;
#X connect 505 0 506 0;
#X connect 506 0 273 1;
